# xmcd
#
# Track frame offsets:
#	150
#	1427
#	16780
#	39828
#	53426
#	74118
#	94594
#	111856
#	127761
#	144954
#	161607
#	180402
#	196109
#
# Disc length: 2869 seconds
#
# Revision: 0
# Processed by: cddbd v1.5.1PL0 Copyright (c) Steve Scherf et al.
# Submitted via: AudioConverter v5.0 Copyright (c) AC Productions Ltd
#
DISCID=960b330d
DTITLE=Larry Crane - Wire and Wood
DYEAR=2003
DGENRE=Country
TTITLE0=Intro
TTITLE1=Wire and Wood
TTITLE2=Snow Plow
TTITLE3=County Fair Nights
TTITLE4=Tiny
TTITLE5=O Solo Mio
TTITLE6=Like Fallin In Love
TTITLE7=Rock of Love
TTITLE8=Siesta Key
TTITLE9=Just the Same
TTITLE10=Guardian Angel
TTITLE11=Oh What a Time
TTITLE12=Quitcherbitchin
EXTD=
EXTT0=
EXTT1=
EXTT2=
EXTT3=
EXTT4=
EXTT5=
EXTT6=
EXTT7=
EXTT8=
EXTT9=
EXTT10=
EXTT11=
EXTT12=
PLAYORDER=
